<?xml version="1.0" encoding="UTF-8"?>
<svg width="160px" height="160px" viewBox="0 0 160 160" version="1.1" xmlns="http://www.w3.org/2000/svg" xmlns:xlink="http://www.w3.org/1999/xlink">
    <!-- Generator: Sketch 41.1 (35376) - http://www.bohemiancoding.com/sketch -->
    <title>icon/chat</title>
    <desc>Created with Sketch.</desc>
    <defs></defs>
    <g id="Symbols" stroke="none" stroke-width="1" fill="none" fill-rule="evenodd">
        <g id="icon/chat">
            <g id="Group-3" transform="translate(15.000000, 23.000000)">
                <g id="icon/chat" transform="translate(0.200000, 0.200000)">
                    <path d="M55.2851343,41.1949848 C55.9842149,40.4702952 56.9515701,40.0629021 57.9561313,40.0629021 L66.6917015,40.0629021" id="Stroke-1" stroke="#3578BD" stroke-width="4"></path>
                    <path d="M95.5698006,25.2073517 C96.0280215,23.3877931 96.2179678,21.4683448 96.1298484,19.4842621 C95.6324633,8.92729655 86.5404991,0.79902069 75.9740036,0.79902069 L53.6073409,0.79902069 C42.8489409,0.79902069 33.6806066,9.20737931 33.4005827,19.9680414 C33.2987558,24.100731 34.5950901,27.4578069 36.5160931,30.9559034 C38.0552454,33.7665241 43.7634245,44.7680966 45.5963081,48.9399586 C45.9135379,49.6528966 46.841729,49.831131 47.3880693,49.2709655 L55.285526,41.1955724" id="Stroke-3" stroke="#3578BD" stroke-width="4"></path>
                    <path d="M66.6913099,40.0629021 C66.7559307,48.1657159 73.3159307,54.6898814 81.4287904,54.6898814 L94.9972203,54.6898814 C96.0017815,54.6898814 96.9554293,55.0972745 97.6682173,55.8219641 L103.313734,61.6077297 C103.73279,62.0288331 104.433829,61.9015228 104.660981,61.3668193 C106.035644,58.2389021 110.320205,49.9578538 111.477507,47.860171 C112.901125,45.2649986 113.86848,42.7853848 113.829316,39.7456055 C113.702032,31.5918676 106.734725,25.2067641 98.5827009,25.2067641 L95.5690173,25.2067641 C93.4463188,33.7424331 85.7270591,40.0629021 76.5215188,40.0629021 L66.6913099,40.0629021 L66.6913099,40.0629021 Z" id="Stroke-5" stroke="#3578BD" stroke-width="4"></path>
                    <path d="M55.2882675,20.1938703 C55.2882675,22.2327945 53.6355391,23.8839117 51.5990018,23.8839117 C49.5605063,23.8839117 47.9077779,22.2327945 47.9077779,20.1938703 C47.9077779,18.1549462 49.5605063,16.503829 51.5990018,16.503829 C53.6355391,16.503829 55.2882675,18.1549462 55.2882675,20.1938703" id="Fill-7" fill="#3578BD"></path>
                    <path d="M69.3192263,20.1938703 C69.3192263,22.2327945 67.6664979,23.8839117 65.6299606,23.8839117 C63.5914651,23.8839117 61.9387367,22.2327945 61.9387367,20.1938703 C61.9387367,18.1549462 63.5914651,16.503829 65.6299606,16.503829 C67.6664979,16.503829 69.3192263,18.1549462 69.3192263,20.1938703" id="Fill-9" fill="#3578BD"></path>
                    <path d="M83.3499893,20.1938703 C83.3499893,22.2327945 81.6972609,23.8839117 79.6607236,23.8839117 C77.6222281,23.8839117 75.9694997,22.2327945 75.9694997,20.1938703 C75.9694997,18.1549462 77.6222281,16.503829 79.6607236,16.503829 C81.6972609,16.503829 83.3499893,18.1549462 83.3499893,20.1938703" id="Fill-11" fill="#3578BD"></path>
                    <path d="M55.0781516,41.8546483 C58.8065815,45.8561103 61.0878949,51.222731 61.0878949,57.1240552 C61.0878949,69.4947034 51.0599069,79.5228414 38.6918591,79.5228414 C26.3238113,79.5228414 16.2977815,69.4947034 16.2977815,57.1240552 C16.2977815,45.0041103 25.9204203,35.1326621 37.9418651,34.7370207" id="Stroke-13" stroke="#3578BD" stroke-width="4" stroke-linecap="round"></path>
                    <path d="M0,113.960877 C0.54438209,94.458891 8.1774806,77.5559945 19.3275224,68.3563531" id="Stroke-15" stroke="#3578BD" stroke-width="4" stroke-linecap="round"></path>
                    <path d="M58.0556084,68.3555697 C69.270271,77.6100524 76.9307845,94.6559283 77.3929218,114.304811" id="Stroke-17" stroke="#3578BD" stroke-width="4" stroke-linecap="round"></path>
                    <path d="M106.623694,57.2654676 C112.760721,60.0917572 117.021784,66.2986262 117.021784,73.4985159 C117.021784,83.3640883 109.026417,91.3611366 99.1629182,91.3611366 C89.2994197,91.3611366 81.3040525,83.3640883 81.3040525,73.4985159 C81.3040525,64.1402262 88.4985122,56.4643917 97.6590137,55.698571" id="Stroke-19" stroke="#3578BD" stroke-width="4" stroke-linecap="round"></path>
                    <path d="M73.8943857,93.1654179 C76.4733469,88.8035697 79.8277588,85.1389903 83.7206782,82.45568" id="Stroke-21" stroke="#3578BD" stroke-width="4" stroke-linecap="round"></path>
                    <path d="M114.604179,82.4558759 C123.75489,88.7587172 129.936955,100.494772 130.04074,113.958331" id="Stroke-23" stroke="#3578BD" stroke-width="4" stroke-linecap="round"></path>
                    <path d="M49.6684036,64.803611 C50.187329,64.803611 50.6318424,65.2462593 50.5633051,65.7613766 C50.0952931,69.2320524 47.1227319,71.9075283 43.5255021,71.9075283 C39.9693946,71.9075283 37.0222901,69.2927697 36.5033648,65.882811 C36.4191618,65.3206869 36.8205946,64.803611 37.3884752,64.803611 L49.6684036,64.803611 Z" id="Fill-25" fill="#3578BD"></path>
                    <path d="M100.506203,78.2222222 C100.948175,78.2222222 101.328366,78.6001162 101.268961,79.0374276 C100.869761,81.9940324 98.3367398,84.27328 95.2738278,84.27328 C92.2441826,84.27328 89.7349234,82.0463196 89.2929517,79.1396253 C89.2192897,78.6619102 89.5614614,78.2222222 90.0462046,78.2222222 L100.506203,78.2222222 Z" id="Fill-27" fill="#3578BD"></path>
                </g>
            </g>
        </g>
    </g>
</svg>