<?xml version="1.0" encoding="UTF-8"?>
<svg width="160px" height="160px" viewBox="0 0 160 160" version="1.1" xmlns="http://www.w3.org/2000/svg" xmlns:xlink="http://www.w3.org/1999/xlink">
    <!-- Generator: Sketch 41.1 (35376) - http://www.bohemiancoding.com/sketch -->
    <title>icon/grow up</title>
    <desc>Created with Sketch.</desc>
    <defs></defs>
    <g id="Symbols" stroke="none" stroke-width="1" fill="none" fill-rule="evenodd">
        <g id="icon/grow-up">
            <rect id="Rectangle-4" fill="#D8D8D8" opacity="0" x="0" y="0" width="160" height="160"></rect>
            <g id="Page-1" transform="translate(18.666667, 20.444444)" stroke="#3578BD" stroke-linecap="round" stroke-linejoin="round">
                <path d="M97.4672669,0.223946552 L97.4672669,42.293503 C97.4672669,61.790987 82.3066317,78.3953085 62.8226581,79.0882006 C42.3659333,79.8158339 25.5550953,63.4489101 25.5550953,43.1562406 L25.5550953,5.93865161e-05 L97.4672669,0.223946552 L97.4672669,0.223946552 Z" id="Stroke-1" stroke-width="4"></path>
                <path d="M88.2108836,12.0899663 L88.2108836,37.1035669 C88.2108836,50.3611612 80.7164538,62.1905098 69.6205286,67.9092829" id="Stroke-3" stroke-width="4"></path>
                <path d="M55.944007,79.7729866 L55.944007,93.9145492" id="Stroke-5" stroke-width="4"></path>
                <path d="M66.7226597,79.7729866 L66.7226597,93.9145492" id="Stroke-7" stroke-width="4"></path>
                <path d="M82.6245128,101.179495 L40.7884939,101.179495 L40.7884939,101.179495 C41.9735518,96.8870373 45.8780668,93.9147422 50.3287892,93.9147422 L73.0842175,93.9147422 C77.53687,93.9147422 81.441385,96.8870373 82.6245128,101.179495 L82.6245128,101.179495 L82.6245128,101.179495 Z" id="Stroke-9" stroke-width="4"></path>
                <polygon id="Stroke-11" stroke-width="4" points="28.7651741 114.647466 94.6497627 114.647466 94.6497627 101.179495 28.7651741 101.179495"></polygon>
                <path d="M14.9997805,114.645669 L108.41477,114.645669" id="Stroke-13" stroke-width="4"></path>
                <path d="M45.6250357,0 L20.8777836,0" id="Stroke-14" stroke-width="4"></path>
                <path d="M58.4001145,0 L45.6250357,0" id="Stroke-15" stroke-width="4"></path>
                <path d="M102.144,0 L58.4010796,0" id="Stroke-16" stroke-width="4"></path>
                <path d="M20.3562555,75.5663724 L24.216379,77.67786 L20.3562555,79.7874175 C19.4549166,80.2815133 18.7118428,81.022657 18.2196771,81.9259259 L16.1081895,86.9112755 L13.9967019,81.9259259 C13.5045362,81.022657 12.7614624,80.2815133 11.8601235,79.7874175 L8,77.67786 L11.8601235,75.5663724 C12.7614624,75.0722766 13.5045362,74.3311329 13.9967019,73.429794 L16.1081895,68.4444444 L18.2196771,73.429794 C18.7118428,74.3311329 19.4549166,75.0722766 20.3562555,75.5663724 L20.3562555,75.5663724 Z" id="Stroke-17" stroke-width="3.5"></path>
                <path d="M118.517293,56.5823293 L122.464269,58.7401384 L118.517293,60.8998775 C117.594723,61.4036236 116.836209,62.1621379 116.330533,63.0847074 L114.172724,68.1839306 L112.014914,63.0847074 C111.509238,62.1621379 110.750724,61.4036236 109.828155,60.8998775 L105.881178,58.7401384 L109.828155,56.5823293 C110.750724,56.0785832 111.509238,55.3181389 112.014914,54.3955693 L114.172724,49.2982762 L116.330533,54.3955693 C116.836209,55.3181389 117.594723,56.0785832 118.517293,56.5823293 L118.517293,56.5823293 Z" id="Stroke-18" stroke-width="3.5"></path>
                <path d="M50.2162666,17.8540364 L54.3871301,20.1353694 L50.2162666,22.4167025 C49.2415854,22.9493995 48.4386797,23.7523052 47.9059827,24.7269864 L45.6246496,30.1137888 L43.3433166,24.7269864 C42.8106196,23.7523052 42.0096439,22.9493995 41.0330327,22.4167025 L36.8621692,20.1353694 L41.0330327,17.8540364 C42.0096439,17.3213394 42.8106196,16.5184337 43.3433166,15.5437525 L45.6246496,10.15502 L47.9059827,15.5437525 C48.4386797,16.5184337 49.2415854,17.3213394 50.2162666,17.8540364 L50.2162666,17.8540364 Z" id="Stroke-19" stroke-width="3.5"></path>
                <path d="M24.8035293,39.9994316 C11.0267483,39.169505 0.0620673931,24.8503767 0.0620673931,7.30804528 L25.5543233,7.30804528" id="Stroke-20" stroke-width="4"></path>
                <path d="M23.2847636,32.5397428 C15.3676503,32.0630176 9.06406851,23.8332342 9.06406851,13.7505915 L23.7170975,13.7505915" id="Stroke-21" stroke-width="4"></path>
                <path d="M98.4338418,39.9994316 C112.210623,39.169505 123.175304,24.8503767 123.175304,7.30804528 L97.6830478,7.30804528" id="Stroke-22" stroke-width="4"></path>
                <path d="M99.9526074,32.5397428 C107.869721,32.0630176 114.173303,23.8332342 114.173303,13.7505915 L99.5202736,13.7505915" id="Stroke-23" stroke-width="4"></path>
            </g>
        </g>
    </g>
</svg>