<?xml version="1.0" encoding="UTF-8"?>
<svg width="160px" height="160px" viewBox="0 0 160 160" version="1.1" xmlns="http://www.w3.org/2000/svg" xmlns:xlink="http://www.w3.org/1999/xlink">
    <!-- Generator: Sketch 41.1 (35376) - http://www.bohemiancoding.com/sketch -->
    <title>icon/share knowledge</title>
    <desc>Created with Sketch.</desc>
    <defs></defs>
    <g id="Symbols" stroke="none" stroke-width="1" fill="none" fill-rule="evenodd">
        <g id="icon/share-knowledge">
            <rect id="Rectangle-4" fill="#D8D8D8" opacity="0" x="0" y="0" width="160" height="160"></rect>
            <g id="Page-1" transform="translate(22.222222, 0.000000)" stroke="#3578BD" stroke-linecap="round" stroke-linejoin="round">
                <path d="M93.2046155,58.0063514 C93.2046155,37.6254112 76.0500169,21.2512838 55.3931526,22.5343311 C37.2609942,23.6616783 22.6902282,38.7389622 22.1383799,56.898713 C21.8427469,66.5915342 25.4317318,75.4408158 31.4646162,82.0156941 C36.6441066,87.6603139 39.6043786,94.9861 39.6043786,102.646937 L39.6043786,111.078391 L75.7208788,111.078391 L75.7208788,102.65285 C75.7208788,94.9230317 78.799404,87.5952746 83.9946615,81.8698485 C89.7161459,75.5630108 93.2046155,67.1946255 93.2046155,58.0063514 L93.2046155,58.0063514 Z" id="Stroke-1" stroke-width="4"></path>
                <polyline id="Stroke-3" stroke-width="4" points="72.8658523 111.077996 72.8658523 132.37737 42.1141058 132.37737 42.1141058 111.077996"></polyline>
                <path d="M69.338162,133.153111 C67.5584512,137.969958 62.9248964,141.403243 57.4911616,141.403243 C52.0554558,141.403243 47.421901,137.967987 45.6421902,133.15114" id="Stroke-5" stroke-width="4"></path>
                <path d="M43.7655119,119.329114 L56.9822786,111.321401" id="Stroke-7" stroke-width="3"></path>
                <path d="M55.7871329,132.067152 L72.5987971,121.881609" id="Stroke-9" stroke-width="3"></path>
                <path d="M43.20578,129.336686 L70.7568063,112.645246" id="Stroke-11" stroke-width="3"></path>
                <path d="M57.4143955,0 L57.4143955,14.2889292" id="Stroke-13" stroke-width="4"></path>
                <path d="M115.325455,57.4143955 L101.036525,57.4143955" id="Stroke-15" stroke-width="4"></path>
                <path d="M14.2889292,57.4143955 L0,57.4143955" id="Stroke-17" stroke-width="4"></path>
                <path d="M98.4365315,16.888923 L88.331795,26.9936595" id="Stroke-19" stroke-width="4"></path>
                <path d="M26.9928712,26.9928712 L16.8881346,16.8881346" id="Stroke-21" stroke-width="4"></path>
                <path d="M47.966457,110.985365 L47.966457,85.1588644" id="Stroke-23" stroke-width="4"></path>
                <path d="M66.862334,110.985365 L66.862334,85.1588644" id="Stroke-25" stroke-width="4"></path>
                <path d="M48.4737633,84.4351547 C50.2613576,84.4351547 50.2613576,88.3453941 52.0489519,88.3453941 C53.8345753,88.3453941 53.8345753,84.4351547 55.6201987,84.4351547 C57.4097639,84.4351547 57.4097639,88.3453941 59.1993291,88.3453941 C60.9928361,88.3453941 60.9928361,84.4351547 62.7843722,84.4351547 C64.5778792,84.4351547 64.5778792,88.3453941 66.3694152,88.3453941" id="Stroke-27" stroke-width="3"></path>
                <path d="M41.4490802,43.506332 C45.2772214,38.33725 51.4207612,34.9863505 58.3469828,34.9863505 C65.2733815,34.9863505 71.4163681,38.3374213 75.2439322,43.5067285" stroke-width="4"></path>
            </g>
        </g>
    </g>
</svg>