<?xml version="1.0" encoding="UTF-8"?>
<svg width="160px" height="160px" viewBox="0 0 160 160" version="1.1" xmlns="http://www.w3.org/2000/svg" xmlns:xlink="http://www.w3.org/1999/xlink">
    <!-- Generator: Sketch 41.1 (35376) - http://www.bohemiancoding.com/sketch -->
    <title>icon/learn tools</title>
    <desc>Created with Sketch.</desc>
    <defs></defs>
    <g id="Symbols" stroke="none" stroke-width="1" fill="none" fill-rule="evenodd">
        <g id="icon/learn-tools">
            <rect id="Rectangle-4" fill="#D8D8D8" opacity="0" x="0" y="0" width="160" height="160"></rect>
            <g id="Page-1" transform="translate(18.666667, 20.444444)" stroke="#3578BD" stroke-width="4" stroke-linecap="round" stroke-linejoin="round">
                <g id="Group-5" transform="translate(0.109329, 0.480690)">
                    <polygon id="Stroke-1" points="56.7410683 84.8013143 -0.000191325015 43.5899061 10.4231955 13.8465193 66.5790006 0.639353535 90.8638847 22.2208152"></polygon>
                    <path d="M0,43.5900974 L90.8640761,22.2210065" id="Stroke-3"></path>
                </g>
                <polyline id="Stroke-6" points="29.1367772 37.2383803 56.8502056 85.2820048 61.9432775 29.5279822"></polyline>
                <g id="Group-19" transform="translate(2.705882, 0.371362)">
                    <polygon id="Stroke-7" points="7.82645039 13.9558479 25.0303957 35.8357766 36.9595104 7.10449911 59.4172406 29.1087891 63.9822555 0.748682115"></polygon>
                    <polygon id="Stroke-9" points="80.3791919 117.828877 110.838134 117.828877 110.838134 100.955924 80.3791919 100.955924"></polygon>
                    <path d="M71.429773,101.006536 L119.787171,101.006536" id="Stroke-11"></path>
                    <path d="M95.6086631,35.4339941 L71.4290077,81.9546714 C71.4290077,81.9546714 79.2867261,87.1127938 80.0826381,92.3091812 C80.8785502,97.5036554 80.0826381,100.957072 80.0826381,100.957072 L111.098336,100.957072 C111.098336,100.957072 110.725253,96.5393773 111.383411,92.238391 C111.951646,88.3047487 119.750053,81.9546714 119.750053,81.9546714 L119.788318,81.9546714 L95.6086631,35.4339941 L95.6086631,35.4339941 Z" id="Stroke-12"></path>
                    <path d="M101.019608,100.956115 L101.019608,110.354" id="Stroke-13"></path>
                    <path d="M100.312197,81.5569067 C100.312197,84.1551004 98.2057089,86.2596756 95.6094284,86.2596756 C93.0112347,86.2596756 90.9047463,84.1551004 90.9047463,81.5569067 C90.9047463,78.958713 93.0112347,76.8541378 95.6094284,76.8541378 C98.2057089,76.8541378 100.312197,78.958713 100.312197,81.5569067 L100.312197,81.5569067 Z" id="Stroke-14"></path>
                    <path d="M95.6078431,36.438833 L95.6078431,76.8543292" id="Stroke-15"></path>
                    <path d="M0,105.754929 L0,96.1580665" id="Stroke-16"></path>
                    <path d="M59.5163399,105.754929 L59.5163399,96.1580665" id="Stroke-17"></path>
                    <path d="M0.0710909091,101.006536 L59.2383518,101.006536" id="Stroke-18"></path>
                </g>
            </g>
        </g>
    </g>
</svg>