<?xml version="1.0" encoding="UTF-8"?>
<svg width="60px" height="60px" viewBox="0 0 60 60" version="1.1" xmlns="http://www.w3.org/2000/svg" xmlns:xlink="http://www.w3.org/1999/xlink">
    <!-- Generator: Sketch 41 (35326) - http://www.bohemiancoding.com/sketch -->
    <title>option-delete</title>
    <desc>Created with Sketch.</desc>
    <defs></defs>
    <g id="05_profile" stroke="none" stroke-width="1" fill="none" fill-rule="evenodd">
        <g id="05_profile_job-collect_posted_hover" transform="translate(-1190.000000, -297.000000)">
            <g id="Group-10" transform="translate(990.000000, 297.000000)">
                <g id="ic_delete" transform="translate(200.000000, 0.000000)">
                    <rect id="Rectangle-Copy-38" fill="#FFE8E8" opacity="0" x="0" y="3.55271368e-15" width="60" height="60"></rect>
                    <g id="Group-30" transform="translate(14.000000, 13.500000)" fill="#FFFFFF">
                        <path d="M5,6.5 L7,4.5 L7,29.5035095 C7,30.0535884 7.44701091,30.5 8.00016086,30.5 L25.4998391,30.5 C26.0501951,30.5 26.5,30.0512257 26.5,29.5035095 L26.5,4.5 L28.5,6.5 L5,6.5 Z M28.5,4.5 L28.5,29.5035095 C28.5,31.1584255 27.1521332,32.5 25.4998391,32.5 L8.00016086,32.5 C6.34321777,32.5 5,31.1589349 5,29.5035095 L5,4.5 L28.5,4.5 Z" id="Rectangle-14"></path>
                        <path d="M31.477607,6.5 C32.0298917,6.5 32.477607,6.05228475 32.477607,5.5 C32.477607,4.94771525 32.0298917,4.5 31.477607,4.5 L1.47760698,4.5 C0.925322231,4.5 0.477606981,4.94771525 0.477606981,5.5 C0.477606981,6.05228475 0.925322231,6.5 1.47760698,6.5 L31.477607,6.5 Z" id="Path-19"></path>
                        <path d="M13,6.5 L11,4.5 L22.5,4.5 L20.5,6.5 L20.5,3.25 C20.5,2.56159499 19.9389569,2 19.2506737,2 L14.2493263,2 C13.560392,2 13,2.56030447 13,3.25 L13,6.5 Z M14.2493263,0 L19.2506737,0 C21.0452271,0 22.5,1.45872688 22.5,3.25 L22.5,6.5 L11,6.5 L11,3.25 C11,1.45507456 12.4564829,0 14.2493263,0 Z" id="Rectangle-15"></path>
                        <path d="M10.5,26.7757128 C10.5,27.3279976 10.9477153,27.7757128 11.5,27.7757128 C12.0522847,27.7757128 12.5,27.3279976 12.5,26.7757128 L12.5,11.2933532 C12.5,10.7410684 12.0522847,10.2933532 11.5,10.2933532 C10.9477153,10.2933532 10.5,10.7410684 10.5,11.2933532 L10.5,26.7757128 Z" id="Path-20"></path>
                        <path d="M15.5,25.7733527 C15.5,26.3256375 15.9477153,26.7733527 16.5,26.7733527 C17.0522847,26.7733527 17.5,26.3256375 17.5,25.7733527 L17.5,12.7933532 C17.5,12.2410684 17.0522847,11.7933532 16.5,11.7933532 C15.9477153,11.7933532 15.5,12.2410684 15.5,12.7933532 L15.5,25.7733527 Z" id="Path-20"></path>
                        <path d="M20.5,26.7757128 C20.5,27.3279976 20.9477153,27.7757128 21.5,27.7757128 C22.0522847,27.7757128 22.5,27.3279976 22.5,26.7757128 L22.5,11.2933532 C22.5,10.7410684 22.0522847,10.2933532 21.5,10.2933532 C20.9477153,10.2933532 20.5,10.7410684 20.5,11.2933532 L20.5,26.7757128 Z" id="Path-20"></path>
                    </g>
                </g>
            </g>
        </g>
    </g>
</svg>