<?xml version="1.0" encoding="UTF-8"?>
<svg width="60px" height="60px" viewBox="0 0 60 60" version="1.1" xmlns="http://www.w3.org/2000/svg" xmlns:xlink="http://www.w3.org/1999/xlink">
    <!-- Generator: Sketch 41 (35326) - http://www.bohemiancoding.com/sketch -->
    <title>option-edit</title>
    <desc>Created with Sketch.</desc>
    <defs></defs>
    <g id="05_profile" stroke="none" stroke-width="1" fill="none" fill-rule="evenodd">
        <g id="05_profile_job-collect_posted_hover" transform="translate(-1090.000000, -297.000000)" fill="#FFFFFF">
            <g id="Group-10" transform="translate(990.000000, 297.000000)">
                <g id="ic_edit" transform="translate(100.000000, 0.000000)">
                    <rect id="Rectangle-Copy-25" opacity="0" x="0" y="-3.55271368e-15" width="60" height="60"></rect>
                    <g id="Group-18" transform="translate(12.500000, 14.500000)">
                        <path d="M3.00164366,21.5056102 L0.246267107,28.6600026 C-0.114003286,29.5954522 0.558109074,30.5108841 1.55377184,30.4566869 L8.72890071,30.0661207 C9.76599557,30.0096681 11.1568424,29.4690686 11.9623356,28.809578 L33.7095494,11.0042339 C34.7795733,10.1281611 34.9341314,8.55375306 34.0531628,7.48654419 L28.7153157,1.02025493 C27.8269336,-0.0559346351 26.2467879,-0.178244045 25.2014372,0.748724071 L4.93456986,18.7204345 C4.19415534,19.3769995 3.35670252,20.5836925 3.00164366,21.5056102 Z M26.5283787,2.24512851 C26.7268064,2.06917212 27.0055982,2.09075168 27.172939,2.29346906 L32.5107861,8.75975832 C32.6862698,8.97233989 32.6558608,9.28210168 32.4425552,9.45674378 L10.6953414,27.2620879 C10.2181607,27.6527755 9.23291431,28.0357247 8.62019496,28.0690771 L1.44506609,28.4596433 C1.89304903,28.4352581 2.27543778,28.9560801 2.11263586,29.3787986 L4.86801241,22.2244062 C5.10801053,21.6012461 5.76042058,20.6611828 6.26151136,20.2168389 L26.5283787,2.24512851 Z" id="Path-14"></path>
                        <polygon id="Path-15" points="27.5167878 14.8120857 29.048013 13.5254819 22.1616022 5.32976059 20.6303769 6.61636437"></polygon>
                    </g>
                </g>
            </g>
        </g>
    </g>
</svg>