<?xml version="1.0" encoding="UTF-8"?>
<svg width="40px" height="40px" viewBox="0 0 40 40" version="1.1" xmlns="http://www.w3.org/2000/svg" xmlns:xlink="http://www.w3.org/1999/xlink">
    <!-- Generator: Sketch 40.3 (33839) - http://www.bohemiancoding.com/sketch -->
    <title>Rectangle 4</title>
    <desc>Created with Sketch.</desc>
    <defs></defs>
    <g id="06_Admin" stroke="none" stroke-width="1" fill="none" fill-rule="evenodd">
        <g id="06_post-job_admin" transform="translate(-167.000000, -1895.000000)">
            <g id="Group-7" transform="translate(167.000000, 1895.000000)">
                <rect id="Rectangle-4" fill="#D8D8D8" opacity="0" x="0" y="0" width="40" height="40"></rect>
                <path d="M15.5,7 L12.755,10 L8,10 C6.35,10 5,11.35 5,13 L5,31 C5,32.65 6.35,34 8,34 L32,34 C33.65,34 35,32.65 35,31 L35,13 C35,11.35 33.65,10 32,10 L27.245,10 L24.5,7 L15.5,7 L15.5,7 Z M20,29.5 C15.86,29.5 12.5,26.14 12.5,22 C12.5,17.86 15.86,14.5 20,14.5 C24.14,14.5 27.5,17.86 27.5,22 C27.5,26.14 24.14,29.5 20,29.5 L20,29.5 Z M19.745838,25.5 C17.6781354,25.5 16,23.82 16,21.75 C16,19.68 17.6781354,18 19.745838,18 C21.8135405,18 23.4916759,19.68 23.4916759,21.75 C23.4916759,23.82 21.8135405,25.5 19.745838,25.5 L19.745838,25.5 Z M29.745838,16.25 C28.9187569,16.25 28.2475028,15.578 28.2475028,14.75 C28.2475028,13.922 28.9187569,13.25 29.745838,13.25 C30.572919,13.25 31.2441731,13.922 31.2441731,14.75 C31.2441731,15.578 30.572919,16.25 29.745838,16.25 L29.745838,16.25 Z" id="Shape" stroke="#FFFFFF" stroke-width="1.5"></path>
            </g>
        </g>
    </g>
</svg>