<?xml version="1.0" encoding="UTF-8"?>
<svg width="20px" height="20px" viewBox="0 0 20 20" version="1.1" xmlns="http://www.w3.org/2000/svg" xmlns:xlink="http://www.w3.org/1999/xlink">
    <!-- Generator: Sketch 40.3 (33839) - http://www.bohemiancoding.com/sketch -->
    <title>Rectangle 3</title>
    <desc>Created with Sketch.</desc>
    <defs>
        <rect id="path-1" x="0" y="0" width="20" height="20"></rect>
        <mask id="mask-2" maskContentUnits="userSpaceOnUse" maskUnits="objectBoundingBox" x="0" y="0" width="20" height="20" fill="white">
            <use xlink:href="#path-1"></use>
        </mask>
    </defs>
    <g id="Symbols" stroke="none" stroke-width="1" fill="none" fill-rule="evenodd">
        <g id="entypo/heart2">
            <rect id="Rectangle-path" x="0" y="0" width="20" height="20"></rect>
            <g id="Group-17" stroke-width="2">
                <use id="Rectangle-3" stroke="#979797" mask="url(#mask-2)" fill="#D8D8D8" opacity="0" xlink:href="#path-1"></use>
                <g id="Group-11" transform="translate(10.000000, 7.975736) rotate(-135.000000) translate(-10.000000, -7.975736) translate(4.500000, 2.475736)" stroke="#EB223A">
                    <path d="M3.2,-6.1284311e-14 L7.19479638,-6.1284311e-14 C8.96498146,-6.1284311e-14 10.4,1.43628492 10.4,3.2 C10.4,4.9673112 8.97573084,6.4 7.19479638,6.4 L6.4,6.4 L6.4,7.19479638 C6.4,8.96498146 4.96371508,10.4 3.2,10.4 C1.4326888,10.4 -8.8817842e-15,8.97573084 -7.99360578e-15,7.19479638 L-7.10542736e-15,-4.46964035e-14 L3.2,-4.4108573e-14 Z" id="Combined-Shape"></path>
                </g>
            </g>
        </g>
    </g>
</svg>