<?xml version="1.0" encoding="UTF-8"?>
<svg width="119px" height="25px" viewBox="0 0 119 25" version="1.1" xmlns="http://www.w3.org/2000/svg" xmlns:xlink="http://www.w3.org/1999/xlink">
    <!-- Generator: Sketch 40.3 (33839) - http://www.bohemiancoding.com/sketch -->
    <title>logo</title>
    <desc>Created with Sketch.</desc>
    <defs></defs>
    <g id="Symbols" stroke="none" stroke-width="1" fill="none" fill-rule="evenodd">
        <g id="Footer" transform="translate(-130.000000, -50.000000)" fill="#FFFFFF">
            <g id="im_logo_cafe" transform="translate(127.000000, 50.000000)">
                <path d="M87.0253906,28.8896484 C92.6845703,28.8896484 96.9335938,25.4941406 97.5458984,20.4101562 L96.0800781,20.4101562 C95.5048828,24.7148438 91.7382812,27.5166016 87.0253906,27.5166016 C80.7910156,27.5166016 76.7460938,22.6552734 76.7460938,14.9550781 C76.7460938,7.44042969 80.7353516,2.70898438 87.0253906,2.70898438 C91.6269531,2.70898438 95.5048828,5.99316406 96.0800781,10.2978516 L97.5458984,10.2978516 C96.9892578,5.1953125 92.4619141,1.3359375 87.0253906,1.3359375 C79.8261719,1.3359375 75.2431641,6.62402344 75.2431641,14.9550781 C75.2431641,23.4716797 79.8447266,28.8896484 87.0253906,28.8896484 L87.0253906,28.8896484 Z M107.008789,27.4794922 C103.891602,27.4794922 101.646484,25.6611328 101.646484,23.1191406 C101.646484,20.4472656 103.706055,18.8886719 107.52832,18.6103516 L114.189453,18.109375 L114.189453,21.0966797 C114.189453,24.640625 110.998047,27.4794922 107.008789,27.4794922 L107.008789,27.4794922 Z M106.823242,28.7597656 C110.21875,28.7597656 113.206055,26.9042969 114.189453,24.1953125 L114.226562,24.1953125 L114.226562,28.5 L115.618164,28.5 L115.618164,15.0292969 C115.618164,10.8544922 112.87207,8.25683594 108.493164,8.25683594 C104.28125,8.25683594 101.3125,10.6318359 100.959961,14.3242188 L102.351562,14.3242188 C102.833984,11.2998047 105.079102,9.57421875 108.474609,9.57421875 C112.074219,9.57421875 114.189453,11.6337891 114.189453,15.1220703 L114.189453,16.9033203 L107.342773,17.4042969 C102.648438,17.7568359 100.199219,19.7050781 100.199219,23.1191406 C100.199219,26.4589844 102.908203,28.7597656 106.823242,28.7597656 L106.823242,28.7597656 Z M120.887695,28.5 L122.334961,28.5 L122.334961,9.77832031 L126.621094,9.77832031 L126.621094,8.51660156 L122.334961,8.51660156 L122.334961,5.77050781 C122.334961,3.24707031 123.466797,2.30078125 125.37793,2.30078125 C125.878906,2.30078125 126.361328,2.35644531 126.769531,2.46777344 L126.769531,1.20605469 C126.398438,1.09472656 125.878906,1.0390625 125.303711,1.0390625 C122.501953,1.0390625 120.887695,2.41210938 120.887695,5.67773438 L120.887695,8.51660156 L118.104492,8.51660156 L118.104492,9.77832031 L120.887695,9.77832031 L120.887695,28.5 Z M137.605469,9.55566406 C141.817383,9.55566406 144.674805,12.7841797 144.693359,17.515625 L130.350586,17.515625 C130.573242,12.7470703 133.449219,9.55566406 137.605469,9.55566406 L137.605469,9.55566406 Z M144.452148,22.9150391 C143.876953,25.53125 141.446289,27.4609375 137.791016,27.4609375 C133.300781,27.4609375 130.332031,24.2695312 130.332031,18.8144531 L130.332031,18.7402344 L146.15918,18.7402344 L146.15918,17.9052734 C146.15918,12.0976562 142.782227,8.25683594 137.624023,8.25683594 C132.354492,8.25683594 128.866211,12.3388672 128.866211,18.5361328 C128.866211,24.9560547 132.354492,28.7597656 137.772461,28.7597656 C142.188477,28.7597656 145.268555,26.2919922 145.917969,22.9150391 L144.452148,22.9150391 Z" id="Cafe"></path>
                <path d="M64.3304359,18.8993901 L69.860836,11.2874473 C70.3512612,10.6124349 70.1999686,9.67812339 69.5297569,9.19118614 C68.8548727,8.70085406 67.9211467,8.85329572 67.433785,9.52409154 L62.4763339,16.3474377 L57.5188828,9.52409154 C57.0315211,8.85329572 56.0977951,8.70085406 55.4229109,9.19118614 C54.7526993,9.67812339 54.6014066,10.6124349 55.0918318,11.2874473 L60.6222319,18.8993901 L55.0918318,26.5113329 C54.6014066,27.1863452 54.7526993,28.1206568 55.4229109,28.607594 C56.0977951,29.0979261 57.0315211,28.9454844 57.5188828,28.2746886 L62.4763339,21.4513425 L67.433785,28.2746886 C67.9211467,28.9454844 68.8548727,29.0979261 69.5297569,28.607594 C70.1999686,28.1206568 70.3512612,27.1863452 69.860836,26.5113329 L64.3304359,18.8993901 Z M51,10.5 L51,20.5080326 C51,25.1980167 47.1848682,29 42.5,29 C37.8055796,29 34,25.1892195 34,20.5080326 L34,10.5 C34,9.67157288 34.6657972,9 35.5,9 C36.3284271,9 37,9.66579723 37,10.5 L37,20.4989112 C37,23.5297939 39.4624339,26 42.5,26 C45.5313853,26 48,23.5370787 48,20.4989112 L48,10.5 C48,9.67157288 48.6657972,9 49.5,9 C50.3284271,9 51,9.66579723 51,10.5 Z M21,10.5 L21,20.5080326 C21,25.1980167 17.1848682,29 12.5,29 C7.80557963,29 4,25.1892195 4,20.5080326 L4,10.5 C4,9.67157288 4.66579723,9 5.5,9 C6.32842712,9 7,9.66579723 7,10.5 L7,20.4989112 C7,23.5297939 9.46243388,26 12.5,26 C15.5313853,26 18,23.5370787 18,20.4989112 L18,10.5 C18,9.67157288 18.6657972,9 19.5,9 C20.3284271,9 21,9.66579723 21,10.5 Z M26,10.0032506 C26,9.17302822 26.6657972,8.5 27.5,8.5 C28.3284271,8.5 29,9.16543579 29,10.0032506 L29,26.9967494 C29,27.8269718 28.3342028,28.5 27.5,28.5 C26.6715729,28.5 26,27.8345642 26,26.9967494 L26,10.0032506 Z" id="Combined-Shape"></path>
            </g>
        </g>
    </g>
</svg>