<?xml version="1.0" encoding="UTF-8"?>
<svg width="159px" height="32px" viewBox="0 0 159 32" version="1.1" xmlns="http://www.w3.org/2000/svg" xmlns:xlink="http://www.w3.org/1999/xlink">
    <!-- Generator: Sketch 40.3 (33839) - http://www.bohemiancoding.com/sketch -->
    <title>logo</title>
    <desc>Created with Sketch.</desc>
    <defs></defs>
    <g id="04_Jobs" stroke="none" stroke-width="1" fill="none" fill-rule="evenodd">
        <g transform="translate(-134.000000, -24.000000)" id="Group-2" fill="#000000">
            <g>
                <g id="Group-2-Copy">
                    <g id="Group">
                        <g id="logo" transform="translate(134.000000, 24.000000)">
                            <path d="M92.6948785,31.0996094 C98.9828559,31.0996094 103.703993,27.3268229 104.384332,21.6779514 L102.755642,21.6779514 C102.116536,26.4609375 97.9314236,29.5740017 92.6948785,29.5740017 C85.7677951,29.5740017 81.2734375,24.172526 81.2734375,15.6167535 C81.2734375,7.2671441 85.7059462,2.00998264 92.6948785,2.00998264 C97.8077257,2.00998264 102.116536,5.65907118 102.755642,10.4420573 L104.384332,10.4420573 C103.765842,4.77256944 98.7354601,0.484375 92.6948785,0.484375 C84.6957465,0.484375 79.6035156,6.36002604 79.6035156,15.6167535 C79.6035156,25.0796441 84.7163628,31.0996094 92.6948785,31.0996094 L92.6948785,31.0996094 Z M114.898655,29.5327691 C111.435113,29.5327691 108.940538,27.5123698 108.940538,24.687934 C108.940538,21.719184 111.22895,19.9874132 115.475911,19.6781684 L122.87717,19.1215278 L122.87717,22.4407552 C122.87717,26.3784722 119.331163,29.5327691 114.898655,29.5327691 L114.898655,29.5327691 Z M114.692491,30.9552951 C118.465278,30.9552951 121.784505,28.8936632 122.87717,25.8836806 L122.918403,25.8836806 L122.918403,30.6666667 L124.464627,30.6666667 L124.464627,15.6992187 C124.464627,11.0605469 121.413411,8.17426215 116.54796,8.17426215 C111.868056,8.17426215 108.569444,10.813151 108.177734,14.9157986 L109.723958,14.9157986 C110.259983,11.5553385 112.754557,9.63802083 116.527344,9.63802083 C120.52691,9.63802083 122.87717,11.9264323 122.87717,15.8023003 L122.87717,17.781467 L115.269748,18.3381076 C110.053819,18.7298177 107.332465,20.8945312 107.332465,24.687934 C107.332465,28.3988715 110.342448,30.9552951 114.692491,30.9552951 L114.692491,30.9552951 Z M130.319661,30.6666667 L131.927734,30.6666667 L131.927734,9.86480035 L136.690104,9.86480035 L136.690104,8.46289062 L131.927734,8.46289062 L131.927734,5.41167535 C131.927734,2.6078559 133.18533,1.55642361 135.308811,1.55642361 C135.865451,1.55642361 136.401476,1.61827257 136.855035,1.74197049 L136.855035,0.340060764 C136.442708,0.216362847 135.865451,0.154513889 135.226345,0.154513889 C132.113281,0.154513889 130.319661,1.68012153 130.319661,5.30859375 L130.319661,8.46289062 L127.227214,8.46289062 L127.227214,9.86480035 L130.319661,9.86480035 L130.319661,30.6666667 Z M148.894965,9.61740451 C153.57487,9.61740451 156.749783,13.2046441 156.770399,18.4618056 L140.833984,18.4618056 C141.08138,13.1634115 144.27691,9.61740451 148.894965,9.61740451 L148.894965,9.61740451 Z M156.502387,24.4611545 C155.863281,27.3680556 153.162543,29.5121528 149.101128,29.5121528 C144.111979,29.5121528 140.813368,25.9661458 140.813368,19.9049479 L140.813368,19.8224826 L158.399089,19.8224826 L158.399089,18.8947483 C158.399089,12.4418403 154.646918,8.17426215 148.915582,8.17426215 C143.060547,8.17426215 139.184679,12.7098524 139.184679,19.5957031 C139.184679,26.7289497 143.060547,30.9552951 149.080512,30.9552951 C153.987196,30.9552951 157.409505,28.2133247 158.131076,24.4611545 L156.502387,24.4611545 Z" id="Cafe"></path>
                            <path d="M67.4782621,19.9993223 L73.6231511,11.5416081 C74.168068,10.7915943 73.9999651,9.75347043 73.2552855,9.21242905 C72.5054141,8.66761562 71.4679408,8.83699524 70.9264278,9.58232393 L65.4181488,17.1638196 L59.9098697,9.58232393 C59.3683568,8.83699524 58.3308834,8.66761562 57.5810121,9.21242905 C56.8363325,9.75347043 56.6682295,10.7915943 57.2131464,11.5416081 L63.3580355,19.9993223 L57.2131464,28.4570365 C56.6682295,29.2070503 56.8363325,30.2451742 57.5810121,30.7862156 C58.3308834,31.331029 59.3683568,31.1616494 59.9098697,30.4163207 L65.4181488,22.834825 L70.9264278,30.4163207 C71.4679408,31.1616494 72.5054141,31.331029 73.2552855,30.7862156 C73.9999651,30.2451742 74.168068,29.2070503 73.6231511,28.4570365 L67.4782621,19.9993223 Z M52.6666667,10.6666667 L52.6666667,21.7867029 C52.6666667,26.9977963 48.4393917,31.2222222 43.2222222,31.2222222 C38.0061996,31.2222222 33.7777778,26.9880217 33.7777778,21.7867029 L33.7777778,10.6666667 C33.7777778,9.74619208 34.5175525,9 35.4444444,9 C36.364919,9 37.1111111,9.7397747 37.1111111,10.6666667 L37.1111111,21.776568 C37.1111111,25.1442155 39.8471488,27.8888889 43.2222222,27.8888889 C46.5904281,27.8888889 49.3333333,25.1523096 49.3333333,21.776568 L49.3333333,10.6666667 C49.3333333,9.74619208 50.073108,9 51,9 C51.9204746,9 52.6666667,9.7397747 52.6666667,10.6666667 Z M19.3333333,10.6666667 L19.3333333,21.7867029 C19.3333333,26.9977963 15.1060584,31.2222222 9.88888889,31.2222222 C4.67286625,31.2222222 0.444444444,26.9880217 0.444444444,21.7867029 L0.444444444,10.6666667 C0.444444444,9.74619208 1.18421915,9 2.11111111,9 C3.03158569,9 3.77777778,9.7397747 3.77777778,10.6666667 L3.77777778,21.776568 C3.77777778,25.1442155 6.51381542,27.8888889 9.88888889,27.8888889 C13.2570948,27.8888889 16,25.1523096 16,21.776568 L16,10.6666667 C16,9.74619208 16.7397747,9 17.6666667,9 C18.5871412,9 19.3333333,9.7397747 19.3333333,10.6666667 Z M24.8888889,10.1147229 C24.8888889,9.19225358 25.6286636,8.44444444 26.5555556,8.44444444 C27.4760301,8.44444444 28.2222222,9.18381755 28.2222222,10.1147229 L28.2222222,28.9963882 C28.2222222,29.9188575 27.4824475,30.6666667 26.5555556,30.6666667 C25.635081,30.6666667 24.8888889,29.9272936 24.8888889,28.9963882 L24.8888889,10.1147229 Z" id="Combined-Shape"></path>
                        </g>
                    </g>
                </g>
            </g>
        </g>
    </g>
</svg>